# xmcd
# 
# Track frame offsets:
#     175
#     36897
#     51097
#     66467
#     90565
#     127715
#     176405
#     196032
#     206722
#     219147
# 
# Disc length: 3451
# 
# Revision: 8
# Processed by: cddbd v1.5.2PL0 Copyright (c) Steve Scherf et al.
# Submitted via: fre:ac v1.0.17
# 
DISCID=830d790a
DTITLE=Håkon Austbø - Messiaen: Vingt regards sur l'enfant Jésus
DYEAR=1993
DGENRE=Classical
TTITLE0=Vingt regards sur l'enfant Jésus - I. Regard du Père
TTITLE1=Vingt regards sur l'enfant Jésus - II. Regard de l' Étoile
TTITLE2=Vingt regards sur l'enfant Jésus - III. L' Échange
TTITLE3=Vingt regards sur l'enfant Jésus - IV. Regard de la Vierge
TTITLE4=Vingt regards sur l'enfant Jésus - V. Regard du Fils sur le Fils
TTITLE5=Vingt regards sur l'enfant Jésus - VI. Par Lui tout a été fait
TTITLE6=Vingt regards sur l'enfant Jésus - VII. Regard de la Croix
TTITLE7=Vingt regards sur l'enfant Jésus - VIII. Regard des Hauteurs
TTITLE8=Vingt regards sur l'enfant Jésus - IX. Regard du Temps
TTITLE9=Vingt regards sur l'enfant Jésus - X. Regard de l' Esprit de joie
EXTD=
EXTT0=
EXTT1=
EXTT2=
EXTT3=
EXTT4=
EXTT5=
EXTT6=
EXTT7=
EXTT8=
EXTT9=
PLAYORDER=
